<svg id="Layer_1" data-name="Layer 1" xmlns="http://www.w3.org/2000/svg" viewBox="0 0 7.7 12.79"><defs><style>.cls-1{fill:#010101;stroke:#fff;stroke-miterlimit:10;stroke-width:0.75px;}</style></defs><title>lecture</title><path class="cls-1" d="M11.42,6a.26.26,0,0,0-.21-.11h-1c-.14-.6-.35-1.2-.61-1.28l-.76-.24a.36.36,0,0,0-.12-.15L8.89,4a2.82,2.82,0,0,0,.23-.46l.07-.19a.45.45,0,0,0,.12-.27V2.85a.38.38,0,0,0-.07-.21V2.29A1.1,1.1,0,0,0,8.17,1.16H7.82A1.1,1.1,0,0,0,6.75,2.29v.35a.37.37,0,0,0-.06.21V3.1a.36.36,0,0,0,.12.27,1.46,1.46,0,0,0,.07.19A2.2,2.2,0,0,0,7.11,4l.15.21a.28.28,0,0,0-.11.15l-.77.24c-.25.08-.46.68-.61,1.28H5.49a.37.37,0,0,0-.28-.28c0-.37,0-1.2.53-1.49a.29.29,0,0,0,.25,0l.21-.06a.32.32,0,0,0,.22-.4.3.3,0,0,0-.37-.23l-.21.06a.31.31,0,0,0-.23.3A1.42,1.42,0,0,0,5,4.91a2.92,2.92,0,0,0-.06.72.35.35,0,0,0-.27.31A.16.16,0,0,0,4.58,6a.28.28,0,0,0,0,.24l.38,1.48a.29.29,0,0,0,.26.21h.48v3.74H5.18a.28.28,0,0,0-.26.28h0v1a.27.27,0,0,0,.26.28h5.63a.27.27,0,0,0,.27-.28h0V12a.28.28,0,0,0-.27-.28h-.47V7.94h.49a.27.27,0,0,0,.25-.21l.38-1.48A.29.29,0,0,0,11.42,6ZM7.81,4.82a.08.08,0,0,1,0,0l0,.39a.06.06,0,0,1,0,.06h0l0,0L7.47,5a.09.09,0,0,1,0,0V4.55a.07.07,0,0,1,.07-.07h0l.17.07s0,0,0,.07V4.8Zm.35,0a.08.08,0,0,1,0,0l0,0V4.62s0-.07,0-.07a.51.51,0,0,0,.17-.07.08.08,0,0,1,.1,0V5a.09.09,0,0,1,0,0l-.19.27-.06,0h0a.1.1,0,0,1-.05-.06Zm-1-1.68v0l-.06-.05a.07.07,0,0,1,0-.06V2.93a.08.08,0,0,1,.07-.07h0V2.73a.07.07,0,0,1,0-.06,1.05,1.05,0,0,1,.48-.14.55.55,0,0,1,.38.16.54.54,0,0,0,.42.21.6.6,0,0,0,.27-.07.06.06,0,0,1,.07,0l0,0h0a.07.07,0,0,1,.07.07h0v.12a.06.06,0,0,1,0,.06l-.07.05v0a1.57,1.57,0,0,1-.25.6c-.17.26-.33.37-.41.37H7.81c-.08,0-.24-.11-.41-.37a1.54,1.54,0,0,1-.24-.6ZM8,10.66c-.28,0-.59-.47-.59-1.14S7.72,8.39,8,8.39s.58.46.58,1.13S8.27,10.66,8,10.66Z" transform="translate(-4.15 -0.78)"/></svg>